<?xml version="1.0" encoding="iso-8859-1"?>
<!DOCTYPE svg PUBLIC "-//W3C//DTD SVG 1.1//EN" "http://www.w3.org/Graphics/SVG/1.1/DTD/svg11.dtd">
<svg 
 version="1.1" xmlns="http://www.w3.org/2000/svg" xmlns:xlink="http://www.w3.org/1999/xlink" x="0px" y="0px" width="512px"
	 height="512px" viewBox="0 0 512 512" enable-background="new 0 0 512 512" xml:space="preserve"
><g id="2020da7681f0d538108a21c60202164a"><g></g><g fill="#f76540"><path display="inline" d="M267.617,94.086V93.36c-89.819,0-162.64,72.821-162.64,162.64s72.821,162.64,162.64,162.64v0.727
		c89.824,0,162.64-72.816,162.64-162.64C430.257,166.902,357.441,94.086,267.617,94.086z M267.617,390.759
		c-74.304,0-134.759-60.454-134.759-134.759c0-74.304,60.455-134.759,134.759-134.759V390.759z M499.96,150.742l-23.234,11.617
		l-11.617,23.234l-11.617-23.234l-23.234-11.617l23.234-11.617l11.617-23.234l11.617,23.234L499.96,150.742z M468.979,286.277
		l7.746,3.871l-7.746,3.87l-3.871,7.747l-3.871-7.747l-7.746-3.87l7.746-3.871l3.871-7.746L468.979,286.277z M352.813,77.164
		l-15.492-7.742l15.492-7.742l7.742-15.493l7.741,15.493l15.493,7.742l-15.493,7.742l-7.741,15.493L352.813,77.164z
		 M414.765,386.961l15.492,7.741l-15.492,7.742l-7.742,15.492l-7.741-15.492l-15.492-7.742l15.492-7.741l7.741-15.493
		L414.765,386.961z M245.835,46.892V23.657c0-12.521,9.743-22.749,21.782-23.157v69.548
		C255.578,69.64,245.835,59.412,245.835,46.892z M267.617,441.951V511.5c-12.039-0.408-21.782-10.637-21.782-23.157v-23.234
		C245.835,452.589,255.578,442.36,267.617,441.951z M81.743,256.726c0,12.379-10.455,22.508-23.234,22.508H35.274
		c-12.779,0-23.234-10.129-23.234-22.508s10.456-22.508,23.234-22.508h23.234C71.288,234.218,81.743,244.347,81.743,256.726z
		 M87.406,107.11c-9.035-9.035-9.267-23.588-0.513-32.346c8.753-8.754,23.307-8.522,32.342,0.513l16.437,16.432
		c9.035,9.035,9.267,23.588,0.513,32.347c-8.753,8.754-23.307,8.522-32.342-0.513L87.406,107.11z M136.185,387.945
		c8.754,8.758,8.522,23.312-0.513,32.347l-16.437,16.432c-9.035,9.035-23.588,9.267-32.342,0.513
		c-8.754-8.758-8.522-23.312,0.513-32.347l16.437-16.432C112.878,379.423,127.431,379.191,136.185,387.945z M306.34,448.917
		l7.746,3.871l-7.746,3.871l-3.871,7.746l-3.871-7.746l-7.746-3.871l7.746-3.871l3.871-7.746L306.34,448.917z"></path></g></g></svg>